<svg width="68" height="68" viewBox="0 0 68 68" fill="none" xmlns="http://www.w3.org/2000/svg">
<g opacity="0.8" filter="url(#filter0_f_1884_5717)">
<circle cx="34" cy="34" r="10" fill="white"/>
</g>
<path d="M28.65 47.751C29.2101 47.751 29.4901 47.751 29.704 47.642C29.8922 47.5461 30.0451 47.3931 30.141 47.205C30.25 46.9911 30.25 46.711 30.25 46.151V39.351C30.25 38.7909 30.25 38.5109 30.359 38.297C30.4549 38.1088 30.6078 37.9559 30.796 37.86C31.0099 37.751 31.2899 37.751 31.85 37.751H36.15C36.7101 37.751 36.9901 37.751 37.204 37.86C37.3922 37.9559 37.5451 38.1088 37.641 38.297C37.75 38.5109 37.75 38.7909 37.75 39.351V46.151C37.75 46.711 37.75 46.9911 37.859 47.205C37.9549 47.3931 38.1078 47.5461 38.296 47.642C38.5099 47.751 38.7899 47.751 39.35 47.751H46.15C46.7101 47.751 46.9901 47.751 47.204 47.642C47.3922 47.5461 47.5451 47.3931 47.641 47.205C47.75 46.9911 47.75 46.711 47.75 46.151V32.751C47.7501 32.5868 47.7179 32.4242 47.6552 32.2724C47.5924 32.1207 47.5004 31.9828 47.3844 31.8666L34.8844 19.3666C34.7683 19.2504 34.6304 19.1582 34.4787 19.0953C34.3269 19.0324 34.1643 19 34 19C33.8357 19 33.6731 19.0324 33.5213 19.0953C33.3696 19.1582 33.2317 19.2504 33.1156 19.3666L20.6156 31.8666C20.4996 31.9828 20.4076 32.1207 20.3448 32.2724C20.2821 32.4242 20.2499 32.5868 20.25 32.751V46.151C20.25 46.711 20.25 46.9911 20.359 47.205C20.4549 47.3931 20.6078 47.5461 20.796 47.642C21.0099 47.751 21.2899 47.751 21.85 47.751H28.65Z" fill="white"/>
<defs>
<filter id="filter0_f_1884_5717" x="0" y="0" width="68" height="68" filterUnits="userSpaceOnUse" color-interpolation-filters="sRGB">
<feFlood flood-opacity="0" result="BackgroundImageFix"/>
<feBlend mode="normal" in="SourceGraphic" in2="BackgroundImageFix" result="shape"/>
<feGaussianBlur stdDeviation="12" result="effect1_foregroundBlur_1884_5717"/>
</filter>
</defs>
</svg>
